<svg width="22" height="25" viewBox="0 0 22 25" fill="none" xmlns="http://www.w3.org/2000/svg">
<path fill-rule="evenodd" clip-rule="evenodd" d="M15.6113 0C15.8313 1.49418 15.2231 2.95799 14.4208 3.99365C13.5624 5.10453 12.0829 5.96372 10.6495 5.91888C10.3878 4.48834 11.0578 3.0144 11.873 2.02359C12.7673 0.930068 14.3 0.0911264 15.6113 0ZM19.9175 21.0314C20.6565 19.8988 20.9326 19.3274 21.5062 18.0488C17.3338 16.462 16.6652 10.5301 20.7945 8.25341C19.535 6.67389 17.7651 5.75828 16.0944 5.75828C14.8906 5.75828 14.0658 6.07243 13.3159 6.35803C12.691 6.59603 12.1182 6.81419 11.4216 6.81419C10.6687 6.81419 10.002 6.57515 9.30392 6.32485C8.53683 6.04981 7.73182 5.76118 6.73292 5.76118C4.85804 5.76118 2.86238 6.90677 1.59713 8.86526C-0.181423 11.6236 0.121951 16.8092 3.00616 21.2266C4.03706 22.8076 5.41446 24.5838 7.21602 24.5998C7.96355 24.6072 8.46099 24.3841 8.99929 24.1426C9.61542 23.8663 10.2851 23.5659 11.4446 23.5598C12.6109 23.5528 13.27 23.8568 13.8779 24.1372C14.4024 24.3791 14.8888 24.6035 15.63 24.5954C17.433 24.581 18.8866 22.6123 19.9175 21.0314Z" fill="#0B0B0A"/>
</svg>
